<?xml version="1.0" standalone="no"?><!DOCTYPE svg PUBLIC "-//W3C//DTD SVG 1.1//EN" "http://www.w3.org/Graphics/SVG/1.1/DTD/svg11.dtd"><svg t="1751363807048" class="icon" viewBox="0 0 1024 1024" version="1.1" xmlns="http://www.w3.org/2000/svg" p-id="4503" width="256" height="256" xmlns:xlink="http://www.w3.org/1999/xlink"><path d="M603.584 783.082667a21.333333 21.333333 0 0 1 30.165333 0l116.053334 116.053333a10.666667 10.666667 0 0 1-7.552 18.197333H495.082667a10.666667 10.666667 0 0 1-7.530667-18.218666zM693.333333 106.666667A53.333333 53.333333 0 0 1 746.666667 160v149.333333h-64V170.666667H106.666667v384h160v-170.666667a53.333333 53.333333 0 0 1 49.834666-53.226667L320 330.666667h597.333333a53.333333 53.333333 0 0 1 53.333334 53.333333v405.333333a53.333333 53.333333 0 0 1-53.333334 53.333334h-162.581333L618.666667 706.581333 482.581333 842.666667H320a53.333333 53.333333 0 0 1-53.333333-53.333334v-170.666666h-170.666667A53.333333 53.333333 0 0 1 42.666667 565.333333v-405.333333A53.333333 53.333333 0 0 1 96 106.666667h597.333333z m213.333334 288h-576v384h125.397333l124.885333-124.885334a53.333333 53.333333 0 0 1 72.64-2.581333l2.773334 2.581333 124.885333 124.885334H906.666667v-384z" fill="#ffffff" p-id="4504"></path></svg>